PathFileType	4	(X/Y/Z)	C:\Documents and Settings\rtobon\Desktop\NewMocap\New\NoT\ActorC_TPose.trc
DataRate	CameraRate	NumFrames	NumMarkers	Units	OrigDataRate	OrigDataStartFrame	OrigNumFrames
120.00	120.00	       4	49	mm	120.00	35	       277
Frame#	Time	Root			LtFtHip			LtBkHip			RtFtHip			RtBkHip			Spine1			Spine2			Spine3			SpineOffsetLow			SpineOffsetHigh			LtCtChest			RtCtChest			LtChest			RtChest			LtShoulder			LtBicep			LtElbow			LtForeArm			LtWrist			LtPinky			LtThumb			LtMiddFing			RtShoulder			RtBicep			RtElbow			RtForeArm			RtWrist			RtPinky			RtThumb			RtMiddFing			LtThigh			LtKnee			LtCalf			LtAnkle			LtHeel			LtBall			LtToe			RtThigh			RtKnee			RtCalf			RtAnkle			RtHeel			RtBall			RtToe			TopHead			LfFtHead			LtBkHead			RtFtHead			RtBkHead			
		X1	Y1	Z1	X2	Y2	Z2	X3	Y3	Z3	X4	Y4	Z4	X5	Y5	Z5	X6	Y6	Z6	X7	Y7	Z7	X8	Y8	Z8	X9	Y9	Z9	X10	Y10	Z10	X11	Y11	Z11	X12	Y12	Z12	X13	Y13	Z13	X14	Y14	Z14	X15	Y15	Z15	X16	Y16	Z16	X17	Y17	Z17	X18	Y18	Z18	X19	Y19	Z19	X20	Y20	Z20	X21	Y21	Z21	X22	Y22	Z22	X23	Y23	Z23	X24	Y24	Z24	X25	Y25	Z25	X26	Y26	Z26	X27	Y27	Z27	X28	Y28	Z28	X29	Y29	Z29	X30	Y30	Z30	X31	Y31	Z31	X32	Y32	Z32	X33	Y33	Z33	X34	Y34	Z34	X35	Y35	Z35	X36	Y36	Z36	X37	Y37	Z37	X38	Y38	Z38	X39	Y39	Z39	X40	Y40	Z40	X41	Y41	Z41	X42	Y42	Z42	X43	Y43	Z43	X44	Y44	Z44	X45	Y45	Z45	X46	Y46	Z46	X47	Y47	Z47	X48	Y48	Z48	X49	Y49	Z49	

35	0.283	31.70759	977.79498	-146.73329	163.29962	935.31964	61.14330	163.39566	971.24469	-113.11633	-110.18620	930.37103	67.52569	-107.52699	950.81073	-122.35420	31.18634	1136.51575	-142.21271	33.29943	1278.95020	-146.30807	42.09673	1406.32654	-113.54404	-52.70941	1044.05872	-131.01639	132.06992	1352.56555	-132.29012	55.61091	1214.10339	117.49296	-3.28226	1284.53821	102.58600	128.96826	1323.80127	83.29590	-71.87065	1330.78601	71.53381	167.01463	1425.36694	-15.83408	361.25867	1379.53674	-9.83366	478.89279	1360.46814	-80.35860	588.99139	1366.13708	7.03998	709.38660	1372.44800	-12.60431	771.51636	1337.71704	-57.51821	737.88544	1349.49097	54.09523	763.87286	1377.92944	-1.09015	-111.18932	1426.27490	-36.83531	-296.31250	1379.28491	7.35916	-406.26639	1373.48022	-102.05920	-530.85162	1387.30652	6.00327	-654.51837	1414.76953	-35.56197	-717.03088	1375.16052	-79.30722	-677.97931	1376.80347	36.50269	-717.00226	1411.12439	-22.00574	170.26828	680.74255	64.49599	192.83980	487.15726	-14.59273	203.52280	375.68484	-138.79565	203.29906	167.66418	-83.63489	151.77592	46.32158	-172.87291	212.48550	64.14661	4.96763	154.64555	57.56934	99.47101	-128.62509	671.15802	55.35595	-160.34381	511.49258	-22.49045	-189.70540	376.55203	-128.47481	-181.71571	166.14841	-97.69386	-122.56007	48.03688	-170.66924	-205.95834	65.32327	5.52892	-150.50861	64.95730	100.78430	32.95349	1691.76184	-33.28049	92.44703	1626.04932	62.58310	123.48870	1546.84949	-65.57645	-45.87823	1625.48682	42.43799	-34.77839	1545.47449	-94.83213	
36	0.292	31.70759	977.79498	-146.73329	163.31035	935.23065	60.85183	163.52231	971.10999	-113.03390	-110.24407	930.07935	67.29686	-107.37220	950.75494	-122.73893	31.47612	1136.47131	-142.29622	33.54455	1278.82776	-146.33952	42.17051	1406.39758	-113.65804	-52.70941	1044.05872	-131.01639	132.06606	1352.49377	-132.16165	55.69087	1214.07349	117.42471	-3.28654	1284.64221	102.63485	128.91234	1323.82739	83.25105	-71.76930	1330.92456	71.46143	167.06805	1425.34973	-15.79177	361.36401	1379.54065	-9.87684	478.97324	1360.66040	-80.37508	589.01361	1366.26343	6.96469	709.26965	1372.49011	-12.81705	771.51636	1337.71704	-57.51821	737.93408	1349.65479	54.08213	763.96698	1377.93665	-1.14219	-111.12910	1426.34119	-36.80988	-296.22720	1379.27612	7.30617	-406.34979	1373.43555	-102.39924	-530.89374	1387.37585	5.91288	-654.47333	1414.85181	-36.06299	-717.16705	1375.28516	-79.63441	-677.94855	1376.83740	36.43683	-717.03497	1411.13135	-22.13279	170.26828	680.74255	64.49599	192.78249	487.19040	-14.68514	203.42543	375.62125	-138.79910	203.29906	167.66418	-83.63489	151.61920	46.30949	-173.14330	211.92747	64.17480	4.24288	154.64290	57.51015	99.41830	-128.60197	671.08411	55.40876	-160.15501	511.61304	-22.54426	-189.70540	376.55203	-128.47481	-181.94182	166.26450	-97.61436	-122.56007	48.03688	-170.66924	-205.95834	65.32327	5.52892	-150.56465	65.00368	100.77838	32.89319	1691.86194	-33.37405	92.47441	1626.10181	62.54409	123.39535	1546.79480	-65.89802	-45.84300	1625.42334	42.38735	-34.66463	1545.43909	-94.96745	
37	0.300	31.70759	977.79498	-146.73329	163.25732	935.34283	61.08550	163.46219	971.27740	-113.15565	-110.06297	930.39130	67.31642	-107.37126	950.87939	-122.86756	31.47612	1136.47131	-142.29622	33.59588	1278.83728	-146.44963	42.31041	1406.33069	-113.67373	-52.75883	1044.18237	-131.22572	132.02438	1352.47644	-132.46515	55.78580	1214.14734	117.47858	-3.26501	1284.57971	102.49903	128.91234	1323.82739	83.25105	-71.69543	1331.01453	71.50372	167.13635	1425.69543	-15.42174	361.37592	1379.65527	-9.97629	478.94440	1360.74768	-80.49251	589.18042	1366.27954	6.74262	709.37323	1372.69751	-12.55170	771.46082	1337.77734	-57.67162	737.87939	1349.69482	54.00486	763.84937	1378.09656	-1.20764	-111.06313	1426.26587	-37.14788	-296.24777	1379.39111	7.16859	-406.23196	1373.63391	-102.67855	-530.82025	1387.39771	5.76856	-654.51160	1414.90698	-36.21727	-717.07562	1375.21509	-80.36052	-677.97192	1376.98413	36.40578	-717.01416	1411.20288	-22.36006	170.33047	680.74963	64.39626	192.80449	487.29611	-14.58970	203.43951	375.58484	-138.91989	203.27960	167.57402	-83.56176	151.81105	46.32449	-173.09270	212.47229	63.95612	5.15279	154.63548	57.54846	99.42420	-128.68362	671.28802	55.11749	-160.15501	511.61304	-22.54426	-189.70540	376.55203	-128.47481	-181.77147	166.21802	-97.67586	-122.56007	48.03688	-170.66924	-205.95834	65.32327	5.52892	-150.47159	64.88164	100.79490	33.04318	1691.84546	-33.65294	92.42959	1626.12659	62.29895	123.48139	1546.80640	-65.96835	-45.83313	1625.41602	42.29552	-34.71015	1545.48645	-94.95702	
38	0.308	31.70759	977.79498	-146.73329	163.40399	935.40442	60.96611	163.51630	971.22601	-113.09840	-109.99461	930.52924	67.29723	-107.20937	950.93829	-123.19048	31.47612	1136.47131	-142.29622	33.55020	1278.80750	-146.61995	42.31041	1406.33069	-113.67373	-52.62954	1044.16675	-131.26598	132.02438	1352.47644	-132.46515	55.73020	1214.08618	117.34782	-3.32444	1284.65710	102.54111	128.92741	1323.87402	83.19219	-71.74075	1330.91479	71.51128	167.13635	1425.69543	-15.42174	361.46036	1379.65088	-9.92501	478.94440	1360.74768	-80.49251	589.31085	1366.28857	6.61492	709.34308	1372.90686	-12.67831	771.49420	1337.78430	-57.60376	737.93103	1349.77722	53.87803	763.88293	1378.25159	-1.32583	-111.10445	1426.26672	-37.04304	-296.17468	1379.43933	7.13166	-406.21262	1373.68372	-102.55231	-531.04236	1387.53479	5.43584	-654.42914	1415.02686	-36.48317	-717.03546	1375.43689	-80.13509	-677.94238	1376.94800	36.33712	-717.02612	1411.20422	-22.38630	170.31253	680.67950	64.15987	192.78519	487.42331	-14.84381	203.44441	375.68933	-138.86996	203.29906	167.66418	-83.63489	151.92744	46.32244	-172.99594	212.47034	63.84529	4.87394	154.63490	57.61829	99.36852	-128.62920	671.19751	55.05072	-160.20882	511.68790	-22.59136	-189.70540	376.55203	-128.47481	-181.97968	166.18942	-97.56503	-122.56007	48.03688	-170.66924	-205.95834	65.32327	5.52892	-150.56465	65.00368	100.77838	33.25202	1691.73633	-33.78119	92.36330	1626.40540	61.95401	123.52110	1546.83167	-66.12622	-46.01328	1625.37366	42.07066	-34.56578	1545.18262	-95.36006	
